<?xml version="1.0" encoding="UTF-8"?>
<svg version="1.1" xmlns="http://www.w3.org/2000/svg" width="512" height="512">
<path d="M0 0 C1.45108658 0.00273422 1.45108658 0.00273422 2.93148804 0.00552368 C17.26440977 0.05095174 31.21023917 0.55983928 45.3125 3.3125 C46.65803955 3.55395752 46.65803955 3.55395752 48.03076172 3.80029297 C107.84088904 14.62287989 165.35495829 48.68064457 202.3125 97.3125 C202.72918945 97.85277832 203.14587891 98.39305664 203.57519531 98.94970703 C211.2584873 108.9447116 218.00092968 119.40459036 224.3125 130.3125 C224.70679199 130.98974121 225.10108398 131.66698242 225.50732422 132.36474609 C238.68961173 155.2833756 247.29510918 180.85822563 252.625 206.6875 C252.77243652 207.39817627 252.91987305 208.10885254 253.07177734 208.84106445 C256.05713787 224.48358366 256.6873098 240.11919606 256.625 256 C256.62226578 257.45108658 256.62226578 257.45108658 256.61947632 258.93148804 C256.57404826 273.26440977 256.06516072 287.21023917 253.3125 301.3125 C253.15152832 302.20952637 252.99055664 303.10655273 252.82470703 304.03076172 C242.00212011 363.84088904 207.94435543 421.35495829 159.3125 458.3125 C158.77222168 458.72918945 158.23194336 459.14587891 157.67529297 459.57519531 C147.6802884 467.2584873 137.22040964 474.00092968 126.3125 480.3125 C125.63525879 480.70679199 124.95801758 481.10108398 124.26025391 481.50732422 C101.3416244 494.68961173 75.76677437 503.29510918 49.9375 508.625 C49.22682373 508.77243652 48.51614746 508.91987305 47.78393555 509.07177734 C32.14141634 512.05713787 16.50580394 512.6873098 0.625 512.625 C-0.34239105 512.62317719 -1.3097821 512.62135437 -2.30648804 512.61947632 C-16.63940977 512.57404826 -30.58523917 512.06516072 -44.6875 509.3125 C-45.58452637 509.15152832 -46.48155273 508.99055664 -47.40576172 508.82470703 C-107.21588904 498.00212011 -164.72995829 463.94435543 -201.6875 415.3125 C-202.10418945 414.77222168 -202.52087891 414.23194336 -202.95019531 413.67529297 C-210.6334873 403.6802884 -217.37592968 393.22040964 -223.6875 382.3125 C-224.08179199 381.63525879 -224.47608398 380.95801758 -224.88232422 380.26025391 C-238.06461173 357.3416244 -246.67010918 331.76677437 -252 305.9375 C-252.14743652 305.22682373 -252.29487305 304.51614746 -252.44677734 303.78393555 C-255.43213787 288.14141634 -256.0623098 272.50580394 -256 256.625 C-255.99817719 255.65760895 -255.99635437 254.6902179 -255.99447632 253.69351196 C-255.94904826 239.36059023 -255.44016072 225.41476083 -252.6875 211.3125 C-252.44604248 209.96696045 -252.44604248 209.96696045 -252.19970703 208.59423828 C-241.37712011 148.78411096 -207.31935543 91.27004171 -158.6875 54.3125 C-158.14722168 53.89581055 -157.60694336 53.47912109 -157.05029297 53.04980469 C-147.0552884 45.3665127 -136.59540964 38.62407032 -125.6875 32.3125 C-125.01025879 31.91820801 -124.33301758 31.52391602 -123.63525391 31.11767578 C-100.7166244 17.93538827 -75.14177437 9.32989082 -49.3125 4 C-48.60182373 3.85256348 -47.89114746 3.70512695 -47.15893555 3.55322266 C-31.51641634 0.56786213 -15.88080394 -0.0623098 0 0 Z M-18.6875 50.3125 C-23.48677228 56.93029995 -24.83676945 61.74035174 -24.83467102 69.90812683 C-24.83834771 70.67698583 -24.8420244 71.44584484 -24.8458125 72.2380026 C-24.85683279 74.81647139 -24.86069037 77.39489987 -24.86450195 79.97338867 C-24.87076786 81.8214226 -24.87741477 83.66945528 -24.88441467 85.51748657 C-24.90544249 91.58847173 -24.91581592 97.6594571 -24.92578125 103.73046875 C-24.92982929 105.82163316 -24.93394623 107.91279743 -24.93813133 110.00396156 C-24.95718025 119.82891986 -24.97141187 129.65387066 -24.9797433 139.47884387 C-24.98951475 150.8143735 -25.01583321 162.14970782 -25.05624419 173.48516864 C-25.08641871 182.25049955 -25.10121345 191.01577452 -25.10452431 199.78115636 C-25.10687328 205.01457945 -25.11581391 210.24779381 -25.14098549 215.48116112 C-25.16429447 220.40681956 -25.16848802 225.33213224 -25.15822411 230.25783157 C-25.15772932 232.06174305 -25.16403273 233.86567171 -25.17778015 235.66953087 C-25.25049086 245.77905365 -25.16330233 254.15696765 -19.01171875 262.6171875 C-13.46110549 267.94259688 -7.81243657 270.76212231 -0.078125 271.3671875 C7.48257714 271.19423026 13.20821026 268.38012578 18.62109375 263.21875 C23.83974567 257.33722081 25.46223365 251.56414794 25.45294189 243.83039856 C25.45591302 243.06168842 25.45888414 242.29297827 25.4619453 241.50097388 C25.47063852 238.91706084 25.47214108 236.3331941 25.47363281 233.74926758 C25.47826061 231.89975892 25.48328522 230.05025122 25.48867798 228.20074463 C25.50180926 223.16955421 25.50824858 218.13837714 25.51268864 213.10717225 C25.51561872 209.96377206 25.51972344 206.82037552 25.52419281 203.67697716 C25.53787082 193.84187042 25.5475355 184.00677202 25.5513947 174.17165643 C25.55587371 162.81916226 25.5734131 151.4667886 25.6023953 140.11433107 C25.62401849 131.33969336 25.63409936 122.56508954 25.63543582 113.79042548 C25.63648356 108.54979459 25.64238466 103.30927692 25.66025543 98.06867409 C25.67674665 93.13650729 25.67888646 88.20453869 25.67011642 83.27235413 C25.66934657 81.46480465 25.67368202 79.65724448 25.68357468 77.84972191 C25.69631589 75.37608653 25.69040581 72.90315083 25.67999268 70.42951965 C25.68804908 69.71947952 25.69610548 69.00943938 25.70440602 68.27788287 C25.6360802 61.3057882 23.61804883 54.94135524 18.90234375 49.6953125 C13.06080568 44.61446612 6.32816512 41.9261969 -1.40234375 42.02734375 C-7.73433221 42.81748932 -14.24200764 45.73999357 -18.6875 50.3125 Z M-137.6875 147.3125 C-138.43257812 148.22 -139.17765625 149.1275 -139.9453125 150.0625 C-169.94606951 187.68100409 -184.61142861 235.34859214 -179.6875 283.3125 C-174.80845381 322.69429724 -158.20345381 362.9048286 -128.6875 390.3125 C-123.6875 395.3125 -123.6875 395.3125 -122.16699219 396.88574219 C-118.16629976 400.98395585 -114.02618564 404.63871119 -109.4375 408.0625 C-108.41474976 408.82566528 -108.41474976 408.82566528 -107.37133789 409.60424805 C-68.13215681 438.23800579 -19.38359454 450.19049075 28.625 443.125 C64.47061516 437.35014064 101.38417928 420.15838385 126.3125 393.3125 C131.3125 388.3125 131.3125 388.3125 132.88134766 386.80078125 C137.05727548 382.73271872 140.72124591 378.49582294 144.1875 373.8125 C144.7028833 373.11745361 145.2182666 372.42240723 145.74926758 371.70629883 C174.01823353 333.01668476 186.13751896 284.77374624 179.3125 237.3125 C173.54813377 201.15697836 157.53785689 167.8585562 132.3125 141.3125 C131.09722745 139.90178156 129.88829395 138.48556281 128.6875 137.0625 C119.51436924 126.5728551 107.6047324 118.21953846 95.875 110.8125 C95.21306641 110.39121826 94.55113281 109.96993652 93.86914062 109.53588867 C86.57717926 105.02643485 79.90481836 103.1932835 71.3125 104.3125 C62.79575242 107.04958961 57.9328452 111.945258 53.4375 119.4375 C51.01403909 125.8662017 51.02976354 134.31105666 53.75 140.625 C58.33949231 148.26345574 66.1023182 152.91853864 73.49609375 157.484375 C96.72368819 172.56137111 112.96685433 195.55763926 122.3125 221.3125 C122.6940625 222.34890625 123.075625 223.3853125 123.46875 224.453125 C134.34255618 256.58027963 130.43975017 292.44836558 116.0859375 322.80859375 C113.49928577 327.91922504 110.63806443 332.65131334 107.3125 337.3125 C106.58417969 338.33730469 105.85585938 339.36210937 105.10546875 340.41796875 C84.78481449 368.25207185 54.84733366 386.47254404 20.77734375 392.1171875 C-12.8172063 396.96138809 -48.60510238 389.38067085 -76.06176758 368.99780273 C-81.19261138 365.04353724 -86.00835727 360.78641718 -90.6875 356.3125 C-91.36039062 355.70277344 -92.03328125 355.09304688 -92.7265625 354.46484375 C-102.01435241 345.75060262 -109.0557005 334.65701566 -114.6875 323.3125 C-115.17734375 322.37792969 -115.6671875 321.44335938 -116.171875 320.48046875 C-123.61394358 305.53878983 -127.79126987 288.95677385 -128.6875 272.3125 C-128.72601074 271.60061523 -128.76452148 270.88873047 -128.80419922 270.15527344 C-130.32800029 236.08581079 -118.62782594 203.41573376 -96.0625 177.9375 C-94.61192151 176.38853445 -93.15406474 174.84633835 -91.6875 173.3125 C-91.07777344 172.63960938 -90.46804687 171.96671875 -89.83984375 171.2734375 C-83.12373046 164.11528703 -74.89799066 158.79081682 -66.7734375 153.3671875 C-59.99516617 148.80055757 -54.29099263 144.30977556 -51.6875 136.3125 C-50.60753148 127.63864757 -51.5318167 120.48110751 -56.6875 113.3125 C-61.14825169 108.31137221 -66.45731614 104.84045823 -73.22265625 103.99609375 C-97.07473222 102.95612982 -123.70357628 129.91028381 -137.6875 147.3125 Z " fill="#000000" transform="translate(255.6875,-0.3125)"/>
</svg>
