<svg xmlns="http://www.w3.org/2000/svg" viewBox="0 0 508.1 508.1" width="800" height="800">
  <defs>
    <style>
      .gear-path { fill: #000000; }
    </style>
  </defs>

  <!-- Gear body -->
  <g class="gear-path">
    <!-- Main gear outline -->
    <path d="M498.099,216.6l-48.5-14.6c-4.6-17.3-11.5-33.9-20.5-49.5l23.9-44.6c2.9-5.5,1.9-12.3-2.5-16.7l-33.8-33.8
      c-4.4-4.4-11.2-5.4-16.7-2.5l-44.4,24.1c-15.6-9-32.1-15.9-49.5-20.5l-14.6-48.5c-1.8-6-7.3-10-13.5-10h-47.8
      c-6.2,0-11.7,4.1-13.5,10l-14.6,48.5c-17.4,4.6-33.9,11.5-49.5,20.5l-44.6-23.9c-5.5-2.9-12.2-2-16.6,2.5l-33.8,33.7
      c-4.4,4.4-5.4,11.2-2.5,16.7l24,44.5c-9,15.6-15.9,32.1-20.5,49.5l-48.5,14.6c-6,1.8-10,7.3-10,13.5v47.8c0,6.2,4.1,11.7,10,13.5
      l48.5,14.6c4.6,17.3,11.5,33.9,20.5,49.5l-23.9,44.6c-2.9,5.5-1.9,12.3,2.5,16.7l33.8,33.8c4.4,4.4,11.2,5.4,16.6,2.5l44.6-23.9
      c15.6,9,32.1,15.9,49.5,20.5l14.6,48.4c1.8,6,7.3,10,13.5,10h47.8c6.2,0,11.7-4.1,13.5-10l14.6-48.4c17.3-4.6,33.9-11.5,49.5-20.5
      l44.6,23.9c5.5,2.9,12.3,1.9,16.7-2.5l33.8-33.8c4.4-4.4,5.4-11.2,2.5-16.7l-24.2-44.6c9-15.5,15.9-32.1,20.5-49.5l48.4-14.6
      c6-1.8,10-7.3,10-13.5v-47.8C508.099,223.9,503.999,218.4,498.099,216.6z M479.899,267.4l-46.1,13.9c-4.9,1.5-8.6,5.5-9.7,10.5
      c-4.4,19.8-12.1,38.5-23.1,55.7c-2.7,4.3-2.9,9.8-0.5,14.3l22.8,42.5l-18.9,18.9l-42.5-22.8c-4.5-2.4-10-2.2-14.3,0.5
      c-17.1,10.9-35.9,18.7-55.7,23.1c-5,1.1-9,4.8-10.5,9.7l-13.9,46.1h-26.8l-13.9-46.1c-1.5-4.9-5.5-8.6-10.5-9.7
      c-19.8-4.4-38.5-12.1-55.7-23.1c-4.3-2.7-9.8-2.9-14.3-0.5l-42.5,22.8l-18.9-18.9l22.8-42.5c2.4-4.5,2.2-10-0.5-14.3
      c-10.9-17.1-18.7-35.9-23.1-55.7c-1.1-5-4.8-9-9.7-10.5l-46.1-13.9v-26.8l46.1-13.9c4.9-1.5,8.6-5.5,9.7-10.5
      c4.4-19.8,12.1-38.5,23.1-55.7c2.7-4.3,3-9.8,0.5-14.3l-22.8-42.5l18.9-18.9l42.5,22.8c4.5,2.4,10,2.2,14.3-0.5
      c17.2-10.9,35.9-18.7,55.7-23.1c5-1.1,9-4.8,10.5-9.7l13.9-46.1h26.8l13.9,46.1c1.5,4.9,5.5,8.6,10.5,9.7
      c19.8,4.4,38.5,12.1,55.7,23.1c4.3,2.7,9.7,2.9,14.3,0.5l42.5-22.8l18.9,18.9l-22.8,42.5c-2.4,4.5-2.2,10,0.5,14.3
      c10.9,17.1,18.7,35.9,23.1,55.7c1.1,5,4.8,9,9.7,10.5l46.1,13.9V267.4z"/>

    <!-- Center circle (cutout) -->
    <path d="M254.099,131.6c-67.5,0-122.4,54.9-122.4,122.4s54.9,122.4,122.4,122.4s122.4-54.9,122.4-122.4
      S321.599,131.6,254.099,131.6z M254.099,348.1c-51.9,0-94.1-42.2-94.1-94.1c0-51.9,42.2-94.1,94.1-94.1s94.1,42.2,94.1,94.1
      S305.999,348.1,254.099,348.1z"/>
  </g>
</svg>